
<global>
amp_veltrack=0
ampeg_attack=0.01
ampeg_release=0.85
loop_mode=loop_continuous
</global>

<group>
group_label=PP
xf_cccurve=gain
xfin_hicc1=63
xfout_hicc1=127
xfout_locc1=64

<region>
hikey=B4
hivel=127
lokey=A#4
loop_end=271061
loop_mode=loop_continuous
loop_start=95004
loop_xfade=34763
lovel=1
offset=2638
pitch_keycenter=A#4
sample=Sopranos_Ooh_nonvib_PP_A#4.opus
tune=+14
</region>

<region>
hikey=F6
hivel=127
lokey=A#5
loop_end=270168
loop_mode=loop_continuous
loop_start=94691
loop_xfade=34649
lovel=1
offset=1101
pitch_keycenter=A#5
sample=Sopranos_Ooh_nonvib_PP_A#5.opus
tune=+9
</region>

<region>
hikey=C#4
hivel=127
lokey=F3
loop_end=271060
loop_mode=loop_continuous
loop_start=95004
loop_xfade=34763
lovel=1
offset=1593
sample=Sopranos_Ooh_nonvib_PP_C4.opus
tune=+5
</region>

<region>
hikey=C#5
hivel=127
lokey=C5
loop_end=271061
loop_mode=loop_continuous
loop_start=95004
loop_xfade=34763
lovel=1
offset=2320
pitch_keycenter=C5
sample=Sopranos_Ooh_nonvib_PP_C5.opus
tune=+16
</region>

<region>
hikey=D#4
hivel=127
lokey=D4
loop_end=271061
loop_mode=loop_continuous
loop_start=95004
loop_xfade=34763
lovel=1
offset=2213
pitch_keycenter=D4
sample=Sopranos_Ooh_nonvib_PP_D4.opus
tune=+5
</region>

<region>
hikey=D#5
hivel=127
lokey=D5
loop_end=271061
loop_mode=loop_continuous
loop_start=95004
loop_xfade=34763
lovel=1
offset=12703
pitch_keycenter=D5
sample=Sopranos_Ooh_nonvib_PP_D5.opus
tune=+3
</region>

<region>
hikey=F4
hivel=127
lokey=E4
loop_end=271061
loop_mode=loop_continuous
loop_start=95004
loop_xfade=34763
lovel=1
offset=3185
pitch_keycenter=E4
sample=Sopranos_Ooh_nonvib_PP_E4.opus
tune=+6
</region>

<region>
hikey=F5
hivel=127
lokey=E5
loop_end=269196
loop_mode=loop_continuous
loop_start=94350
loop_xfade=34524
lovel=1
offset=370
pitch_keycenter=E5
sample=Sopranos_Ooh_nonvib_PP_E5.opus
tune=-5
</region>

<region>
hikey=G4
hivel=127
lokey=F#4
loop_end=271061
loop_mode=loop_continuous
loop_start=95004
loop_xfade=34763
lovel=1
offset=6326
pitch_keycenter=F#4
sample=Sopranos_Ooh_nonvib_PP_F#4.opus
tune=+8
</region>

<region>
hikey=G5
hivel=127
lokey=F#5
loop_end=270041
loop_mode=loop_continuous
loop_start=94647
loop_xfade=34632
lovel=1
offset=673
pitch_keycenter=F#5
sample=Sopranos_Ooh_nonvib_PP_F#5.opus
tune=-1
</region>

<region>
hikey=A4
hivel=127
lokey=G#4
loop_end=271061
loop_mode=loop_continuous
loop_start=95004
loop_xfade=34763
lovel=1
offset=9809
pitch_keycenter=G#4
sample=Sopranos_Ooh_nonvib_PP_G#4.opus
tune=+13
</region>

<region>
hikey=A5
hivel=127
lokey=G#5
loop_end=268136
loop_mode=loop_continuous
loop_start=93979
loop_xfade=34388
lovel=1
offset=9042
pitch_keycenter=G#5
sample=Sopranos_Ooh_nonvib_PP_G#5.opus
</region>
</group>

<group>
group_label=FF
xf_cccurve=gain
xfin_hicc1=127
xfin_locc1=64
xfout_hicc1=127
xfout_locc1=127

<region>
hikey=B4
hivel=127
lokey=A#4
loop_end=271061
loop_mode=loop_continuous
loop_start=95004
loop_xfade=34763
lovel=1
offset=6132
pitch_keycenter=A#4
sample=Sopranos_Ooh_nonvib_FF_A#4.opus
tune=-1
</region>

<region>
hikey=F6
hivel=127
lokey=A#5
loop_end=267377
loop_mode=loop_continuous
loop_start=93713
loop_xfade=34291
lovel=1
offset=3195
pitch_keycenter=A#5
sample=Sopranos_Ooh_nonvib_FF_A#5.opus
tune=+7
</region>

<region>
hikey=C#4
hivel=127
lokey=F3
loop_end=271060
loop_mode=loop_continuous
loop_start=95004
loop_xfade=34763
lovel=1
offset=6253
sample=Sopranos_Ooh_nonvib_FF_C4.opus
tune=+2
</region>

<region>
hikey=C#5
hivel=127
lokey=C5
loop_end=270786
loop_mode=loop_continuous
loop_start=94908
loop_xfade=34728
lovel=1
offset=1327
pitch_keycenter=C5
sample=Sopranos_Ooh_nonvib_FF_C5.opus
tune=+9
</region>

<region>
hikey=D#4
hivel=127
lokey=D4
loop_end=271061
loop_mode=loop_continuous
loop_start=95004
loop_xfade=34763
lovel=1
offset=4344
pitch_keycenter=D4
sample=Sopranos_Ooh_nonvib_FF_D4.opus
tune=+7
</region>

<region>
hikey=D#5
hivel=127
lokey=D5
loop_end=266977
loop_mode=loop_continuous
loop_start=93573
loop_xfade=34239
lovel=1
offset=2549
pitch_keycenter=D5
sample=Sopranos_Ooh_nonvib_FF_D5.opus
tune=-5
</region>

<region>
hikey=F4
hivel=127
lokey=E4
loop_end=271061
loop_mode=loop_continuous
loop_start=95004
loop_xfade=34763
lovel=1
offset=4296
pitch_keycenter=E4
sample=Sopranos_Ooh_nonvib_FF_E4.opus
tune=+20
</region>

<region>
hikey=F5
hivel=127
lokey=E5
loop_end=268102
loop_mode=loop_continuous
loop_start=93967
loop_xfade=34384
lovel=1
offset=2785
pitch_keycenter=E5
sample=Sopranos_Ooh_nonvib_FF_E5.opus
tune=+15
</region>

<region>
hikey=G4
hivel=127
lokey=F#4
loop_end=271061
loop_mode=loop_continuous
loop_start=95004
loop_xfade=34763
lovel=1
offset=5181
pitch_keycenter=F#4
sample=Sopranos_Ooh_nonvib_FF_F#4.opus
tune=+12
</region>

<region>
hikey=G5
hivel=127
lokey=F#5
loop_end=270645
loop_mode=loop_continuous
loop_start=94858
loop_xfade=34710
lovel=1
offset=4980
pitch_keycenter=F#5
sample=Sopranos_Ooh_nonvib_FF_F#5.opus
tune=+10
</region>

<region>
hikey=A4
hivel=127
lokey=G#4
loop_end=269521
loop_mode=loop_continuous
loop_start=94464
loop_xfade=34566
lovel=1
offset=3050
pitch_keycenter=G#4
sample=Sopranos_Ooh_nonvib_FF_G#4.opus
tune=+9
</region>

<region>
hikey=A5
hivel=127
lokey=G#5
loop_end=270558
loop_mode=loop_continuous
loop_start=94828
loop_xfade=34698
lovel=1
offset=3682
pitch_keycenter=G#5
sample=Sopranos_Ooh_nonvib_FF_G#5.opus
tune=+1
</region>
</group>